name 900006_13rea_lsw
datacolumns 54
datarows 4
range 0.7285833353999986 0.7543333355999985
cursor 1.0 1.0 0.0
keys m_key
wrap
enforce_loops no
enforce_constraints no
calc_derivatives 0.008583
event_color 1.000000 0.000000 1.000000
endheader

time	calcn_r_tx	calcn_r_ty	calcn_r_tz	calcn_r_r1	calcn_r_r2	calcn_r_r3	calcn_l_tx	calcn_l_ty	calcn_l_tz	calcn_l_r1	calcn_l_r2	calcn_l_r3	pelvis_tz	pelvis_tx	pelvis_ty	pelvis_tilt	pelvis_list	pelvis_rotation	hip_flexion_r	hip_adduction_r	hip_rotation_r	knee_angle_r	ankle_angle_r	subtalar_angle_r	mtp_angle_r	hip_flexion_l	hip_adduction_l	hip_rotation_l	knee_angle_l	ankle_angle_l	subtalar_angle_l	mtp_angle_l	lumbar_extension	lumbar_bending	lumbar_rotation	ground_force_px	ground_force_py	ground_force_pz	ground_force_vx	ground_force_vy	ground_force_vz	ground_force_px	ground_force_py	ground_force_pz	ground_force_vx	ground_force_vy	ground_force_vz	ground_torque_x	ground_torque_y	ground_torque_z	ground_torque_x	ground_torque_y	ground_torque_z	
      0.7285833353999986	      1.9651513075278166	      0.0402666576331104	     -0.2320725512756920	      3.4103487716661123	     -3.2175218098925398	     -1.7435359883730261	      1.7668176394562169	      0.1551310094559657	     -0.3338064372696779	     -3.6499615792463707	     -1.4228632001641832	    -39.4795656219696770	     -0.2776109923131653	      2.0498992553007334	      0.8349547242899094	      1.8854307142567426	     -1.8731529833519538	     -0.6848426376554011	      7.0992562477441687	      5.0978420032529703	     -2.9517341456233082	    -12.8112439171707120	      2.0984012910372085	      0.0000000000000000	      0.0000000000000000	     10.3533042860784900	      1.7305883036660736	     -0.1517245222775632	    -53.9278967533278930	      2.2878032337545031	      0.0000000000000000	      0.0000000000000000	    -11.6114620545111650	      5.8549176142455241	     -2.1826522031062598	      2.0416414791013353	      0.0000000000000000	     -0.2273692456198876	     -9.4899893965809987	    355.5426677253240100	    -15.1633401450133490	      1.6508616159322467	      0.0000000000000000	     -0.2945154401465266	     -0.0000044137102933	     -0.0000127088342186	      0.0000016771593828	      0.0000000000000000	      1.1948291108276401	      0.0000000000000000	      0.0000000000000000	     -0.0000000167301261	      0.0000000000000000	
      0.7371666687999986	      1.9653046875443880	      0.0400231445795369	     -0.2325865382687798	      3.3877767767118416	     -3.5005568475589062	     -1.8661020136361326	      1.7907806057459650	      0.1476661756189010	     -0.3346877013032746	     -3.5766641379020006	     -1.8769820659250316	    -36.3450517013903610	     -0.2770123544388046	      2.0583199682233024	      0.8354891331438095	      1.8242856724237229	     -1.6152418630916781	     -0.8068725650890480	      6.2273322562514135	      4.8784326348926603	     -2.9588124648637009	    -12.2783465944095290	      2.3708430440600390	      0.0000000000000000	      0.0000000000000000	     11.5970606668472240	      1.9082412001537989	     -0.1708768755087274	    -53.3345406583789700	      3.6837230554858156	      0.0000000000000000	      0.0000000000000000	    -11.7316730138137830	      5.4402208608780924	     -1.9703660872241342	      2.0466802736451739	      0.0000000000000000	     -0.2272561649283371	     -9.1943297441076073	    356.9288254629970500	    -14.9952599773529530	      1.6531749389016768	      0.0000000000000000	     -0.2939163579288738	      0.0000024037431410	     -0.0000052729126353	      0.0000007859528566	      0.0000000000000000	      1.2203184184486144	      0.0000000000000000	      0.0000000000000000	      0.0000000828104417	      0.0000000000000000	
      0.7457500021999985	      1.9654973798340158	      0.0397103185282007	     -0.2329766465072882	      3.3542284085862084	     -3.7265358280318530	     -2.0007965200327700	      1.8155144829672341	      0.1397678152997989	     -0.3354840092074140	     -3.4528938613429334	     -2.2564807603783832	    -33.0927975547688930	     -0.2763826060738970	      2.0667457781176650	      0.8358968615528453	      1.7848559743440942	     -1.3356711996500519	     -0.9280298119871325	      5.3409401110435741	      4.6340747883971991	     -2.9159105670395356	    -11.7527513542961070	      2.6335071340606566	      0.0000000000000000	      0.0000000000000000	     12.7655504705842320	      2.0673233429191002	     -0.2614623312922972	    -52.5347281877273320	      5.0438064450799853	      0.0000000000000000	      0.0000000000000000	    -11.8642099699479430	      4.9822460093964729	     -1.7636174749073670	      2.0520167739786674	      0.0000000000000000	     -0.2271402979638422	     -9.0016485608377312	    358.9808144161908100	    -15.0533073890904530	      1.6555251453828137	      0.0000000000000000	     -0.2933216421694994	      0.0000005815102350	      0.0000021721181829	     -0.0000002903269858	      0.0000000000000000	      1.2264528585915710	      0.0000000000000000	      0.0000000000000000	     -0.0000000008038673	      0.0000000000000000	
      0.7543333355999985	      1.9657027364832280	      0.0393484380303997	     -0.2332770808884183	      3.3125735616746863	     -3.9022592187350091	     -2.1442348160486033	      1.8409764523253631	      0.1315484867119854	     -0.3362075931233083	     -3.2851737360471547	     -2.5614853395486969	    -29.7671016319609090	     -0.2757398266871316	      2.0752051789829133	      0.8361668836336293	      1.7581162510275739	     -1.0465547379850222	     -1.0425846902307450	      4.4481862664225460	      4.3775187714336621	     -2.8365385618380721	    -11.2408249306751330	      2.8977357733689764	      0.0000000000000000	      0.0000000000000000	     13.8572498093909570	      2.2031921394362195	     -0.4056608430677077	    -51.5283130998613000	      6.3326407377918876	      0.0000000000000000	      0.0000000000000000	    -11.9911545337917980	      4.5000420545705770	     -1.5691635911310364	      2.0575449253261580	      0.0000000000000000	     -0.2270639070180056	     -8.8708362683787314	    361.7573749235903100	    -15.2170993163373220	      1.6578161120911195	      0.0000000000000000	     -0.2927412382941629	     -0.0000003937916709	      0.0000007233801786	     -0.0000001091853603	      0.0000000000000000	      1.2196077538980936	      0.0000000000000000	      0.0000000000000000	     -0.0000000127175123	      0.0000000000000000	
